Coordinates
version=1
nRows=11
nColumns=40
inDegrees=yes

Units are S.I. units (second, meters, Newtons, ...)
Angles are in degrees.

endheader
time	pelvis_tilt	pelvis_list	pelvis_rotation	pelvis_tx	pelvis_ty	pelvis_tz	hip_flexion_r	hip_adduction_r	hip_rotation_r	knee_angle_r	knee_angle_r_beta	ankle_angle_r	subtalar_angle_r	mtp_angle_r	hip_flexion_l	hip_adduction_l	hip_rotation_l	knee_angle_l	knee_angle_l_beta	ankle_angle_l	subtalar_angle_l	mtp_angle_l	lumbar_extension	lumbar_bending	lumbar_rotation	arm_flex_r	arm_add_r	arm_rot_r	elbow_flex_r	pro_sup_r	wrist_flex_r	wrist_dev_r	arm_flex_l	arm_add_l	arm_rot_l	elbow_flex_l	pro_sup_l	wrist_flex_l	wrist_dev_l
     50.15528571	     -5.35247301	     -5.41344127	      5.45881259	      1.04272367	      0.93321000	      0.54744846	      9.25618953	      3.78768434	    -18.67432061	     12.26343558	     12.26343558	     10.68654301	      6.22706116	     -2.73515311	     38.97327732	    -11.98143745	      2.15234939	     57.72883315	     57.72883315	      6.60197322	    -17.14300949	      9.38939395	    -12.47337695	      8.17574973	      3.35594838	     35.85612231	    -21.00008768	      9.54207901	     82.72642816	     44.43342327	      0.00000000	      0.00000000	     -4.72025453	     -7.26965923	     -0.37927893	     34.21639901	     46.50762148	      0.00000000	      0.00000000
     50.16807143	     -5.57777334	     -5.47525795	      5.44943688	      1.04119359	      0.93248840	      0.54778334	      8.96171367	      3.94956546	    -18.57005427	     12.05084382	     12.05084382	     11.04323606	      6.28437526	     -2.83258540	     39.50956795	    -11.76980864	      2.01724812	     54.37166547	     54.37166547	      6.85431840	    -16.80284316	      9.72345829	    -12.35362273	      8.20496605	      3.74158619	     37.89225761	    -20.76147870	      9.16655222	     83.87700264	     44.42185367	      0.00000000	      0.00000000	     -5.66194231	     -7.26373415	     -0.37407580	     33.71707733	     46.48828045	      0.00000000	      0.00000000
     50.18085714	     -5.61840616	     -5.50580282	      5.51592813	      1.03998269	      0.93202016	      0.54785961	      8.36990841	      4.08844300	    -18.57314647	     11.71653183	     11.71653183	     11.39353525	      6.48488785	     -2.88098086	     39.61502575	    -11.45274357	      1.97733714	     50.65577708	     50.65577708	      6.96810000	    -16.60892874	     10.08034825	    -12.45117709	      8.25435066	      3.53853129	     39.80647064	    -19.87700783	      8.92791635	     85.77385190	     44.38566817	      0.00000000	      0.00000000	     -6.71570947	     -7.32359725	     -0.32920031	     32.98958466	     46.45924781	      0.00000000	      0.00000000
     50.19364286	     -5.75357795	     -5.60525772	      5.58222687	      1.03879592	      0.93123804	      0.54777944	      7.89055701	      4.27099128	    -18.65890528	     11.39600816	     11.39600816	     11.75875792	      6.79538022	     -2.93783462	     39.70741565	    -11.19553031	      1.97249323	     46.77964121	     46.77964121	      7.13478802	    -16.17592242	     10.28753574	    -12.43469769	      8.36766149	      3.51549082	     41.54246323	    -19.23935045	      8.63999740	     87.53995934	     44.35770253	      0.00000000	      0.00000000	     -7.64725971	     -7.32179804	     -0.25497803	     32.41478415	     46.42674203	      0.00000000	      0.00000000
     50.20642857	     -5.85976491	     -5.69644686	      5.64182112	      1.03776972	      0.93042434	      0.54757282	      7.37732156	      4.43966684	    -18.72047099	     11.09866669	     11.09866669	     12.15313648	      7.12339977	     -3.00947946	     39.60212216	    -10.95428748	      1.90611060	     42.75034646	     42.75034646	      7.29719539	    -15.54312801	     10.54291470	    -12.42106715	      8.45327651	      3.56519727	     43.10495062	    -18.67433125	      8.33869078	     89.12671288	     44.33383876	      0.00000000	      0.00000000	     -8.48587646	     -7.34651800	     -0.13515169	     31.95482979	     46.39161860	      0.00000000	      0.00000000
     50.21921429	     -6.07018972	     -5.91626958	      5.72451841	      1.03682714	      0.92924144	      0.54719207	      7.02591789	      4.71556751	    -18.80013146	     10.88243825	     10.88243825	     12.54708225	      7.27261007	     -3.13895411	     39.58077010	    -10.83506819	      1.81560335	     38.78154894	     38.78154894	      7.52647557	    -14.62897427	     10.97483906	    -12.18942608	      8.71365279	      3.77720041	     44.58524666	    -18.40222681	      8.05423364	     90.15188067	     44.32053263	      0.00000000	      0.00000000	     -9.18874348	     -7.31042627	     -0.05014609	     31.66123739	     46.36665113	      0.00000000	      0.00000000
     50.23200000	     -6.00347045	     -5.91452417	      5.77598478	      1.03641926	      0.92855459	      0.54661944	      6.17107880	      4.81551207	    -18.83837668	     10.39296654	     10.39296654	     12.95996867	      7.72561134	     -3.19166675	     38.95535852	    -10.55464078	      1.52315341	     34.70515367	     34.70515367	      7.73068815	    -13.66324873	     11.41995810	    -12.31842051	      8.70975272	      3.57510212	     45.79701300	    -17.49591580	      7.82047500	     91.92936565	     44.28509187	      0.00000000	      0.00000000	    -10.08254763	     -7.42081233	      0.16219099	     31.22364436	     46.31817293	      0.00000000	      0.00000000
     50.24478571	     -6.03077804	     -6.13894642	      5.86359504	      1.03610087	      0.92747808	      0.54593215	      5.46769154	      5.13017614	    -18.99291706	      9.96331003	      9.96331003	     13.32399698	      8.15272420	     -3.26161107	     38.51582050	    -10.46521922	      1.28546363	     30.95494326	     30.95494326	      7.94216088	    -12.48122054	     11.89593400	    -12.27393292	      8.94146657	      3.53394800	     46.82461588	    -16.90286222	      7.49693513	     93.39612876	     44.26240045	      0.00000000	      0.00000000	    -10.82460317	     -7.42751129	      0.41764874	     30.94308300	     46.26546921	      0.00000000	      0.00000000
     50.25757143	     -5.99622594	     -6.39233673	      5.96130819	      1.03613840	      0.92638518	      0.54506127	      4.58089860	      5.49140476	    -19.30553340	      9.35327192	      9.35327192	     13.68701762	      8.92175907	     -3.23889811	     38.01413113	    -10.43524011	      0.89141056	     27.61310522	     27.61310522	      8.21162239	    -11.03238886	     12.46857607	    -12.28011388	      9.21633811	      3.69252416	     47.37229238	    -16.42889479	      6.67026904	     95.54420580	     44.25811284	      0.00000000	      0.00000000	    -11.48974028	     -7.55357982	      1.32850559	     30.87147467	     46.10889198	      0.00000000	      0.00000000
     50.27035714	     -5.96867164	     -6.55536004	      5.99509365	      1.03638705	      0.92523126	      0.54405175	      3.80324093	      5.73205304	    -19.26340071	      8.98150990	      8.98150990	     14.08014482	      9.15885554	     -3.32772716	     37.44951080	    -10.33081466	      0.33670991	     24.65257572	     24.65257572	      8.37198627	     -9.66388858	     13.11553848	    -12.20104843	      9.37372055	      3.68055839	     48.07536683	    -15.98168526	      6.50173268	     96.57618734	     44.24571654	      0.00000000	      0.00000000	    -12.14778519	     -7.60033289	      1.67335190	     30.63451202	     46.04481437	      0.00000000	      0.00000000
     50.28314286	     -5.91177377	     -6.78101281	      6.03849043	      1.03692725	      0.92401574	      0.54292032	      2.88149861	      6.06886587	    -19.30404582	      8.41262635	      8.41262635	     14.41107513	      9.58441600	     -3.35614833	     36.96388157	    -10.31687981	     -0.36278214	     22.35333133	     22.35333133	      8.56669676	     -8.10866741	     13.79339099	    -12.12278988	      9.59482133	      3.63402643	     48.53295250	    -15.50148698	      6.20552878	     97.89953229	     44.23459383	      0.00000000	      0.00000000	    -12.78827381	     -7.65052125	      2.20727108	     30.52195413	     45.95178314	      0.00000000	      0.00000000
